# xmcd CD database file
#
# Track frame offsets:
#	150
#	15124
#	26514
#	37732
#	50751
#	69216
#	81776
#	93262
#	106284
#	117894
#	128124
#
# Disc length: 1901 seconds
#
# Revision: 2
# Processed by: cddbd v1.4PL0 Copyright (c) Steve Scherf et al.
# Submitted via: CDex 1.51
#
DISCID=77076b0b
DTITLE=Viliam Gabco and the Crowd - V znameni blizencov
DYEAR=2003
DGENRE=Country
TTITLE0=Po rokoch
TTITLE1=Magneticke oci
TTITLE2=(O) dcere
TTITLE3=Huslicky z javora
TTITLE4=Taka laska
TTITLE5=Je mi fajn
TTITLE6=Zabudnuty
TTITLE7=Namyslena
TTITLE8=Stryko Brown
TTITLE9=Niekedy mam take dni
TTITLE10=V znameni blizencov
EXTD=YEAR: 2003
EXTT0=
EXTT1=
EXTT2=
EXTT3=
EXTT4=
EXTT5=
EXTT6=
EXTT7=
EXTT8=
EXTT9=
EXTT10=
PLAYORDER=
